<?xml version="1.0" encoding="UTF-8"?>
<svg width="356px" height="377px" viewBox="0 0 356 377" version="1.1" xmlns="http://www.w3.org/2000/svg" xmlns:xlink="http://www.w3.org/1999/xlink">
    <!-- Generator: Sketch 3.8.1 (29687) - http://www.bohemiancoding.com/sketch -->
    <title>experience_hero</title>
    <desc>Created with Sketch.</desc>
    <defs></defs>
    <g id="Page-1" stroke="none" stroke-width="1" fill="none" fill-rule="evenodd">
        <g id="experience_hero" transform="translate(-4.000000, -1.000000)">
            <g id="Page-1">
                <g id="Desktop-HD">
                    <g id="Group-2">
                        <g id="Group">
                            <rect id="Rectangle-3" fill="#C62828" x="106.135314" y="94.5046729" width="162.481848" height="162.691589" rx="39"></rect>
                            <rect id="Rectangle-3-Copy" fill="#93949D" transform="translate(85.093319, 47.117759) rotate(-10.000000) translate(-85.093319, -47.117759) " x="44.4728567" y="6.44486182" width="81.2409241" height="81.3457944" rx="19"></rect>
                            <rect id="Rectangle-3-Copy-2" fill="#F55D5D" transform="translate(205.987928, 28.205809) rotate(8.000000) translate(-205.987928, -28.205809) " x="181.04688" y="3.23256574" width="49.8820964" height="49.946487" rx="12"></rect>
                            <rect id="Rectangle-3-Copy-7" fill="#79EDD2" transform="translate(332.845588, 162.404794) rotate(-12.000000) translate(-332.845588, -162.404794) " x="307.90454" y="137.431551" width="49.8820964" height="49.946487" rx="13"></rect>
                            <rect id="Rectangle-3-Copy-8" fill="#ED79A0" transform="translate(318.291559, 280.617025) rotate(8.000000) translate(-318.291559, -280.617025) " x="287.353563" y="249.639092" width="61.8759921" height="61.9558651" rx="14"></rect>
                            <rect id="Rectangle-3-Copy-5" fill="#FFBD00" transform="translate(84.913785, 293.367900) rotate(-3.000000) translate(-84.913785, -293.367900) " x="59.9727368" y="268.394656" width="49.8820964" height="49.946487" rx="13"></rect>
                            <rect id="Rectangle-3-Copy-6" fill="#9C7BFD" transform="translate(304.047324, 65.241745) rotate(1.000000) translate(-304.047324, -65.241745) " x="275.229818" y="36.3870398" width="57.6350113" height="57.7094098" rx="14"></rect>
                            <rect id="Rectangle-3-Copy-3" fill="#A2E15B" transform="translate(43.282455, 175.122082) rotate(13.000000) translate(-43.282455, -175.122082) " x="8.02713094" y="139.821248" width="70.5106491" height="70.6016682" rx="19"></rect>
                            <rect id="Rectangle-3-Copy-4" fill="#5BAFE1" transform="translate(207.434476, 330.307139) rotate(5.000000) translate(-207.434476, -330.307139) " x="162.321669" y="285.136098" width="90.225614" height="90.3420823" rx="22"></rect>
                        </g>
                    </g>
                </g>
            </g>
        </g>
    </g>
</svg>